0
SECTION
2
HEADER
9
$INSUNITS
70
4
9
$ACADVER
1
AC1014
9
$HANDSEED
5
FFFF
0
ENDSEC
0
SECTION
2
TABLES
0
TABLE
2
VPORT
5
8
100
AcDbSymbolTable
0
ENDTAB
0
TABLE
2
LTYPE
5
5
100
AcDbSymbolTable
0
LTYPE
5
14
100
AcDbSymbolTableRecord
100
AcDbLinetypeTableRecord
2
BYBLOCK
70
0
0
LTYPE
5
15
100
AcDbSymbolTableRecord
100
AcDbLinetypeTableRecord
2
BYLAYER
70
0
0
LTYPE
5
16
100
AcDbSymbolTableRecord
100
AcDbLinetypeTableRecord
2
DASHED
70
0
3
Dashed __ __ __ __ __ __ __ __ __ __ __ __ __ _
72
65
73
2
40
0.75
49
0.5
74
0
49
-0.25
74
0
0
ENDTAB
0
TABLE
2
LAYER
5
2
100
AcDbSymbolTable
70
2
0
LAYER
5
50
100
AcDbSymbolTableRecord
100
AcDbLayerTableRecord
2
0
70
0
62
7
6
CONTINUOUS
0
ENDTAB
0
TABLE
2
STYLE
5
3
100
AcDbSymbolTable
70
1
0
STYLE
5
11
100
AcDbSymbolTableRecord
100
AcDbTextStyleTableRecord
2
STANDARD
70
0
0
ENDTAB
0
TABLE
2
VIEW
5
6
100
AcDbSymbolTable
70
0
0
ENDTAB
0
TABLE
2
UCS
5
7
100
AcDbSymbolTable
70
0
0
ENDTAB
0
TABLE
2
APPID
5
9
100
AcDbSymbolTable
70
2
0
APPID
5
12
100
AcDbSymbolTableRecord
100
AcDbRegAppTableRecord
2
ACAD
70
0
0
ENDTAB
0
TABLE
2
DIMSTYLE
5
A
100
AcDbSymbolTable
70
1
0
ENDTAB
0
TABLE
2
BLOCK_RECORD
5
1
100
AcDbSymbolTable
70
1
0
BLOCK_RECORD
5
1F
100
AcDbSymbolTableRecord
100
AcDbBlockTableRecord
2
*MODEL_SPACE
0
BLOCK_RECORD
5
1B
100
AcDbSymbolTableRecord
100
AcDbBlockTableRecord
2
*PAPER_SPACE
0
ENDTAB
0
ENDSEC
0
SECTION
2
BLOCKS
0
BLOCK
5
20
100
AcDbEntity
100
AcDbBlockBegin
2
*MODEL_SPACE
0
ENDBLK
5
21
100
AcDbEntity
100
AcDbBlockEnd
0
BLOCK
5
1C
100
AcDbEntity
100
AcDbBlockBegin
2
*PAPER_SPACE
0
ENDBLK
5
1D
100
AcDbEntity
100
AcDbBlockEnd
0
ENDSEC
0
SECTION
2
ENTITIES
0
LWPOLYLINE
5
100
100
AcDbEntity
8
0
100
AcDbPolyline
90
6
70
1
43
0.0
10
-33.228470763394782
20
-30.558093419070143
42
2.5929212327501667
10
-33.487311982375545
20
31.215629334332014
10
-57.928125062937319
20
31.215629334332007
42
0.4142135623730962
10
-65.928125062937312
20
23.215629334332025
10
-65.928125062937312
20
-22.558093419070126
42
0.41421356237309553
10
-57.928125062937319
20
-30.558093419070133
0
CIRCLE
5
101
100
AcDbEntity
8
0
100
AcDbCircle
10
-34.068781351304921
20
-34.326892313814156
30
0
40
2.9999999999999893
210
-0
220
0
230
1
0
CIRCLE
5
102
100
AcDbEntity
8
0
100
AcDbCircle
10
-34.068781351304175
20
35.270092624471964
30
0
40
2.9999999999999893
210
-0
220
0
230
1
0
CIRCLE
5
103
100
AcDbEntity
8
0
100
AcDbCircle
10
35.528203586981945
20
35.270092624471246
30
0
40
2.9999999999999893
210
-0
220
0
230
1
0
CIRCLE
5
104
100
AcDbEntity
8
0
100
AcDbCircle
10
35.52820358698122
20
-34.326892313814888
30
0
40
2.9999999999999893
210
-0
220
0
230
1
0
LINE
5
105
100
AcDbEntity
8
0
100
AcDbLine
10
46.319578853446082
20
60.471600155328531
30
0
11
-64.86015661776905
21
60.471600155328531
31
0
0
SPLINE
5
106
100
AcDbEntity
8
0
100
AcDbSpline
70
4
71
5
72
16
73
10
74
0
42
0.000000001
43
0.0000000001
44
0.0000000001
40
0
40
0
40
0
40
0
40
0
40
0
40
0.20000000000000001
40
0.40000000000000002
40
0.60000000000000009
40
0.80000000000000004
40
1
40
1
40
1
40
1
40
1
40
1
41
1
41
1
41
1
41
1
41
1
41
1
41
1
41
1
41
1
41
1
10
-64.86015661776905
20
60.471600155328531
30
0
10
-66.570308772262351
20
60.471600155328538
30
0
10
-69.980522054896539
20
59.858991490323241
30
0
10
-75.065570633497202
20
57.104155473481278
30
0
10
-81.771374539746461
20
50.481827885644073
30
0
10
-89.915058878342776
20
40.4613724250137
30
0
10
-96.083224951484127
20
33.839044837176267
30
0
10
-100.40624866879944
20
31.084208820333959
30
0
10
-103.13118321291981
20
30.471600155328652
30
0
10
-104.45434440409156
20
30.471600155328652
30
0
0
LINE
5
107
100
AcDbEntity
8
0
100
AcDbLine
10
-104.45434440409153
20
30.471600155328652
30
0
11
-208.51953291964375
21
30.47160015532841
31
0
0
LINE
5
108
100
AcDbEntity
8
0
100
AcDbLine
10
-208.51953291964375
20
30.47160015532841
30
0
11
-208.51953291964375
21
-29.52839984467159
31
0
0
LINE
5
109
100
AcDbEntity
8
0
100
AcDbLine
10
-208.51953291964375
20
-29.52839984467159
30
0
11
-104.45434440409156
21
-29.52839984467159
31
0
0
SPLINE
5
110
100
AcDbEntity
8
0
100
AcDbSpline
70
4
71
5
72
16
73
10
74
0
42
0.000000001
43
0.0000000001
44
0.0000000001
40
0
40
0
40
0
40
0
40
0
40
0
40
0.20000000000000001
40
0.40000000000000002
40
0.60000000000000009
40
0.80000000000000004
40
1
40
1
40
1
40
1
40
1
40
1
41
1
41
1
41
1
41
1
41
1
41
1
41
1
41
1
41
1
41
1
10
-64.860156617769036
20
-59.528399844671469
30
0
10
-66.570308772262337
20
-59.528399844671476
30
0
10
-69.980522054896539
20
-58.915791179666243
30
0
10
-75.065570633497202
20
-56.160955162824564
30
0
10
-81.771374539746461
20
-49.538627574987487
30
0
10
-89.915058878342776
20
-39.518172114356986
30
0
10
-96.083224951484127
20
-32.895844526519326
30
0
10
-100.40624866879944
20
-30.141008509676915
30
0
10
-103.13118321291981
20
-29.52839984467159
30
0
10
-104.45434440409156
20
-29.52839984467159
30
0
0
LINE
5
111
100
AcDbEntity
8
0
100
AcDbLine
10
-64.860156617769036
20
-59.528399844671469
30
0
11
46.319578853446082
21
-59.528399844671469
31
0
0
ARC
5
112
100
AcDbEntity
8
0
100
AcDbCircle
10
46.319578853446089
20
-39.528399844671483
30
0
40
19.999999999999982
210
0
220
0
230
1
100
AcDbArc
50
-90
51
0
0
LINE
5
113
100
AcDbEntity
8
0
100
AcDbLine
10
66.319578853446075
20
-39.528399844671476
30
0
11
66.319578853446075
21
40.471600155328538
31
0
0
ARC
5
114
100
AcDbEntity
8
0
100
AcDbCircle
10
46.31957885344606
20
40.471600155328531
30
0
40
20.000000000000007
210
0
220
-0
230
1
100
AcDbArc
50
0
51
89.999999999999929
0
ENDSEC
0
SECTION
2
OBJECTS
0
DICTIONARY
5
C
100
AcDbDictionary
3
ACAD_GROUP
350
D
3
ACAD_MLINESTYLE
350
17
0
DICTIONARY
5
D
100
AcDbDictionary
0
DICTIONARY
5
1A
330
C
100
AcDbDictionary
0
DICTIONARY
5
17
100
AcDbDictionary
0
ENDSEC
0
EOF
